# xmcd
#
# Track frame offsets: 
#        150
#        20032
#        55172
#        85095
#        94615
#        104877
#        118587
#        132160
#        143505
#        153932
#
# Disc length: 2186 seconds
#
# Revision: 0
# Processed by: cddbd v1.5.2PL0 Copyright (c) Steve Scherf et al.
# Submitted via: ExactAudioCopy v0.99pb4
#
DISCID=7e08880a
DTITLE=Roberto Ciotti - Bluesman
DYEAR=1979
DGENRE=Blues
TTITLE0=Mean ol' frisco
TTITLE1=Baby please don't go - Sugar Blues
TTITLE2=Crossroads - Kokomo
TTITLE3=Shake it
TTITLE4=Blues in F
TTITLE5=Winnehead Baby
TTITLE6=Catfish
TTITLE7=Nobody can change my face
TTITLE8=Bottle up and go
TTITLE9=Blues Man
EXTD=
EXTT0=
EXTT1=
EXTT2=
EXTT3=
EXTT4=
EXTT5=
EXTT6=
EXTT7=
EXTT8=
EXTT9=
PLAYORDER=
